<svg xmlns="http://www.w3.org/2000/svg" width="540" height="540" viewBox="0 0 540 540">
  <rect width="540" height="540" fill="#1a1f4e"/>
  <g stroke="#c9a84c" stroke-width="1" opacity="0.10">
    <path d="M0 60 H540 M0 120 H540 M0 180 H540 M0 240 H540 M0 300 H540 M0 360 H540 M0 420 H540 M0 480 H540"/>
    <path d="M60 0 V540 M120 0 V540 M180 0 V540 M240 0 V540 M300 0 V540 M360 0 V540 M420 0 V540 M480 0 V540"/>
  </g>
  <g stroke="#c9a84c" stroke-width="1.4" opacity="0.18" fill="none">
    <circle cx="270" cy="270" r="120"/>
    <circle cx="270" cy="270" r="70"/>
    <path d="M150 270 H390 M270 150 V390"/>
    <rect x="90" y="90" width="120" height="80"/>
    <path d="M360 380 l60 -40 l60 40 v60 h-120 z"/>
  </g>
</svg>
