<?xml version="1.0" encoding="UTF-8" standalone="no"?>
<!DOCTYPE svg PUBLIC "-//W3C//DTD SVG 1.1//EN" "http://www.w3.org/Graphics/SVG/1.1/DTD/svg11.dtd">
<svg width="100%" height="100%" viewBox="0 0 3543 3543" version="1.1" xmlns="http://www.w3.org/2000/svg" xmlns:xlink="http://www.w3.org/1999/xlink" xml:space="preserve" xmlns:serif="http://www.serif.com/" style="fill-rule:evenodd;clip-rule:evenodd;stroke-linejoin:round;stroke-miterlimit:2;">
    <path d="M1771.5,6.879C2745.42,6.879 3536.12,797.579 3536.12,1771.5C3536.12,2745.42 2745.42,3536.12 1771.5,3536.12C797.579,3536.12 6.879,2745.42 6.879,1771.5C6.879,797.579 797.579,6.879 1771.5,6.879ZM140.472,1423L1423,1423L1423,140.472C782.107,276.96 276.96,782.107 140.472,1423ZM2120,140.472L2120,1423L3402.53,1423C3266.04,782.107 2760.89,276.96 2120,140.472ZM3402.53,2120L2120,2120L2120,3402.53C2760.89,3266.04 3266.04,2760.89 3402.53,2120ZM1423,3402.53L1423,2120L140.471,2120C276.959,2760.89 782.105,3266.04 1423,3402.53ZM1983,1560L1771.5,257L1560,1560L257,1771.5L1560,1983L1771.5,3286L1983,1983L3286,1771.5L1983,1560Z"/>
</svg>
